
<svg xmlns="http://www.w3.org/2000/svg" version="1.1" id="svg767" width="1000" height="1000" viewBox="0 0 1000 1000">
  
  <defs id="defs771"></defs>
  
  <g id="g775">
    <path style="fill:#ffffff" d="m 654,974.5024 c -15.70325,-1.4354 -28.65344,-4.104 -31.5,-6.4912 -1.1,-0.9225 -4.025,-2.4296 -6.5,-3.3491 -8.86651,-3.2941 -30,-18.8605 -30,-22.09726 0,-0.65801 -1.4625,-2.57083 -3.25,-4.25071 -4.61201,-4.33433 -8.73616,-10.27714 -8.83061,-12.7247 -0.0443,-1.14893 -1.15348,-3.88897 -2.46476,-6.08897 C 567.78053,913.33621 566,909.26164 566,907.01802 c 0,-2.00685 0.073,-2.00079 3.75,0.31153 3.79709,2.38783 5.34224,4.35699 10.75,13.69992 7.89641,13.64255 22.76894,26.51553 41.6396,36.04143 8.86633,4.4757 13.1248,5.8569 23.3604,7.5766 10.54194,1.7711 43.10652,1.9211 50.35524,0.2319 2.55462,-0.5953 7.11976,-1.2682 10.14476,-1.4953 3.025,-0.2271 6.9537,-0.8883 8.73045,-1.4694 1.77675,-0.581 3.65958,-0.7912 4.18408,-0.4671 0.5245,0.3242 2.6708,-0.05 4.76955,-0.8303 7.98394,-2.9705 13.97812,-4.7901 18.51387,-5.6202 4.16114,-0.7614 13.58716,-4.6448 20.80205,-8.57 1.375,-0.7481 5.425,-2.8662 9,-4.707 5.27736,-2.71733 19.93755,-12.53878 22,-14.73868 0.275,-0.29333 3.425,-2.99654 7,-6.00714 3.575,-3.0106 6.68528,-5.91715 6.91172,-6.45899 0.38727,-0.92666 4.69912,-5.63367 13.33828,-14.56068 2.0625,-2.13122 3.75,-4.32711 3.75,-4.87975 0,-0.55265 1.27113,-2.48297 2.82473,-4.2896 C 831.07109,887.01015 842,868.86242 842,867.24686 c 0,-0.59386 0.38492,-1.22973 0.85537,-1.41307 1.4524,-0.56599 10.94735,-20.34427 12.7243,-26.50513 0.92456,-3.20551 2.48288,-7.4032 3.46295,-9.3282 2.49914,-4.90869 7.59941,-21.31116 8.91307,-28.66442 0.60571,-3.39043 1.74678,-8.34043 2.53573,-11 1.80486,-6.08427 4.60948,-23.92942 5.0034,-31.83558 0.91823,-18.42902 0.45318,-45.90365 -0.94789,-56 -0.83956,-6.05 -2.02417,-14.825 -2.63247,-19.5 -0.6083,-4.675 -1.47784,-9.4 -1.93231,-10.5 -0.45446,-1.1 -1.10004,-4.67036 -1.4346,-7.93414 -0.33457,-3.26378 -0.98787,-6.41378 -1.45178,-7 -0.46392,-0.58622 -1.16408,-3.27846 -1.55593,-5.98275 -0.39184,-2.7043 -1.38592,-5.94476 -2.20907,-7.20104 -0.82314,-1.25628 -1.22708,-3.1334 -0.89764,-4.17138 0.32944,-1.03799 -0.47348,-4.77252 -1.78428,-8.29897 -1.31079,-3.52644 -5.21574,-14.73672 -8.67767,-24.91172 -3.46192,-10.175 -6.88483,-19.19734 -7.60646,-20.04965 -0.72163,-0.8523 -2.00145,-3.5523 -2.84403,-6 -2.09386,-6.08262 -6.41742,-14.61975 -8.11942,-16.03229 C 832.63057,564.2789 832,562.95348 832,561.97314 c 0,-2.10194 -11.75256,-25.33209 -19.83242,-39.20085 -15.09858,-25.91607 -15.39931,-26.40138 -30.53217,-49.27183 -3.27531,-4.95 -7.56519,-11.00633 -9.53307,-13.45852 -1.96788,-2.45218 -4.42008,-6.02971 -5.44932,-7.95006 -1.02925,-1.92035 -3.56833,-5.53902 -5.64239,-8.04148 -2.07407,-2.50247 -5.7066,-7.69994 -8.07228,-11.54994 -2.36569,-3.85 -5.02559,-7.71745 -5.9109,-8.59434 -0.88531,-0.87688 -5.75084,-7.22772 -10.81228,-14.11296 -5.40903,-7.35807 -10.82252,-13.59062 -13.1322,-15.11909 -3.49408,-2.31228 -3.84759,-2.90928 -3.18984,-5.38704 1.08596,-4.09083 7.10382,-5.99216 11.23736,-3.55042 2.84777,1.68222 8.53515,8.43931 14.11,16.76385 1.47331,2.2 5.39128,7.825 8.70659,12.5 3.31531,4.675 8.06898,11.425 10.5637,15 2.49473,3.575 5.85501,8.3 7.4673,10.5 1.61229,2.2 4.57036,6.7 6.57348,10 4.59258,7.56595 8.90955,13.54523 13.69844,18.97321 2.0625,2.33775 3.75,4.90746 3.75,5.71048 0,0.80302 1.33748,3.22769 2.97218,5.38817 1.6347,2.16048 2.9847,4.29167 3,4.73599 0.0153,0.44432 2.61532,4.80497 5.77782,9.69034 7.99306,12.34752 10.64688,16.69241 13.91646,22.78432 1.55845,2.90371 4.24213,7.85303 5.96373,10.99848 1.72161,3.14546 5.00458,9.31901 7.2955,13.71901 2.29091,4.4 5.31648,10.025 6.72348,12.5 1.407,2.475 3.0126,6.075 3.56799,8 0.5554,1.925 1.8055,4.625 2.77801,6 0.97251,1.375 2.5093,4.69113 3.41511,7.36917 0.9058,2.67805 2.13528,5.7817 2.73217,6.89701 1.45327,2.71544 18.84707,53.16168 20.07896,58.23382 0.53432,2.2 1.7036,6.925 2.59839,10.5 0.89479,3.575 1.70884,7.4 1.809,8.5 0.10016,1.1 0.68895,4.475 1.3084,7.5 2.53198,12.36437 4.13764,22.93712 4.63197,30.5 0.28759,4.4 0.8518,9.125 1.25379,10.5 2.06366,7.05869 -0.1475,59.59418 -2.88608,68.571 -0.51529,1.68905 -0.93688,4.53431 -0.93688,6.32281 0,1.7885 -0.91745,7.15655 -2.03878,11.929 -1.12133,4.77246 -2.71563,11.54647 -3.54287,15.05337 -0.82725,3.5069 -3.10835,10.2569 -5.06911,15 -1.96075,4.7431 -5.06558,12.75416 -6.89961,17.80235 -7.14441,19.66509 -20.041,42.75485 -33.13349,59.32147 -6.99141,8.84659 -32.20428,34 -34.08038,34 -0.50857,0 -2.23217,1.15306 -3.83022,2.56235 -1.59805,1.40929 -5.15554,3.71479 -7.90554,5.12339 -2.75,1.4086 -8.15,4.4066 -12,6.6623 -14.49644,8.4933 -35.73894,16.0852 -52.19353,18.6535 -2.85644,0.4458 -5.68898,1.1168 -6.29453,1.4911 -1.27611,0.7887 -2.85072,1.0108 -21.01194,2.9642 -15.82732,1.7024 -21.79532,1.7091 -40,0.045 z M 188.68545,855.14445 c -2.5378,-1.00061 -3.00671,-7.90166 -2.82958,-41.64399 0.19649,-37.42922 2.41828,-77.80746 5.66753,-103 0.78031,-6.05 1.66814,-13.475 1.97296,-16.5 0.30482,-3.025 0.98898,-8.875 1.52036,-13 0.53139,-4.125 1.41909,-13.125 1.97269,-20 0.55359,-6.875 1.88721,-18.35 2.9636,-25.5 1.07639,-7.15 2.67552,-20.2 3.55362,-29 0.8781,-8.8 2.24834,-19.8895 3.04496,-24.64333 0.79663,-4.75384 1.44841,-9.11953 1.44841,-9.70155 0,-1.37845 -8.0204,-6.52291 -41.19846,-26.42563 -30.19895,-18.11561 -43.34403,-25.72949 -44.42101,-25.72949 -0.39197,0 -3.90043,-1.97694 -7.7966,-4.39319 -3.89616,-2.41626 -10.45893,-6.09255 -14.58393,-8.16954 -4.125,-2.07699 -10.6716,-5.68899 -14.54801,-8.02666 -3.8764,-2.33767 -8.8264,-5.05506 -11,-6.03864 C 69.02165,490.91514 66,488.07235 66,485.42076 c 0,-4.46482 12.66898,-16.63492 25,-24.01554 2.475,-1.48139 6.075,-3.72027 8,-4.97529 7.57852,-4.94088 40.18793,-24.42947 40.87675,-24.42947 0.40243,0 2.95729,-1.44142 5.67747,-3.20315 2.72018,-1.76173 8.09578,-4.84582 11.94578,-6.85352 3.85,-2.0077 11.5,-6.20214 17,-9.32096 5.5,-3.11883 11.125,-5.93746 12.5,-6.26364 1.375,-0.32617 4.16111,-1.89032 6.19136,-3.47588 2.03025,-1.58557 3.92757,-2.88285 4.21626,-2.88285 0.28869,0 3.23074,-1.74887 6.53789,-3.88638 3.30714,-2.13752 7.20883,-4.18653 8.67041,-4.55336 1.46159,-0.36683 4.05842,-1.71375 5.77075,-2.99314 1.71233,-1.2794 4.86385,-2.94289 7.00338,-3.69665 2.13953,-0.75376 4.47295,-2.27047 5.18537,-3.37047 0.71921,-1.11047 2.05054,-9.78341 2.99334,-19.5 0.93391,-9.625 2.08067,-20.425 2.54836,-24 0.46769,-3.575 1.29993,-10.325 1.84943,-15 0.5495,-4.675 1.41799,-11.65 1.92998,-15.5 0.51199,-3.85 1.4493,-11.5 2.08292,-17 0.63362,-5.5 2.08145,-16.525 3.2174,-24.5 1.13596,-7.975 2.41595,-17.875 2.84443,-22 2.45977,-23.68041 3.27599,-29.97442 5.76564,-44.46043 l 2.74307,-15.96043 3.92194,-0.81486 c 4.91361,-1.0209 6.40103,0.37568 9.30395,8.73572 8.91735,25.68083 13.58067,38.33425 14.85484,40.30697 0.81952,1.26884 3.00621,6.44384 4.8593,11.5 4.04019,11.02371 11.42153,28.79736 12.53907,30.19303 0.44039,0.55 1.79699,3.925 3.01467,7.5 1.21768,3.575 2.78405,7.175 3.48082,8 0.69677,0.825 2.01775,3.75 2.93552,6.5 0.91777,2.75 2.72516,6.89843 4.01642,9.21874 1.29125,2.3203 2.89944,5.9203 3.57373,8 0.6743,2.07969 2.73363,6.79717 4.57628,10.48328 l 3.35029,6.70202 3.26159,-1.09054 c 1.79387,-0.5998 4.16159,-1.89246 5.26159,-2.87259 1.1,-0.98012 4.31301,-2.65575 7.14003,-3.72362 2.82702,-1.06786 10.70202,-5.11493 17.5,-8.99347 6.79798,-3.87854 14.9156,-7.78824 18.03915,-8.68822 3.12354,-0.89999 6.72354,-2.44675 8,-3.43726 1.27645,-0.99051 7.27082,-4.27212 13.32082,-7.29246 30.50971,-15.23139 40.11309,-20.13514 41.29982,-21.08886 2.50733,-2.01502 24.71818,-12.70409 26.41122,-12.71052 0.94108,-0.004 2.51608,-0.83293 3.5,-1.84301 1.98576,-2.03855 9.32979,-5.16349 12.13488,-5.16349 0.993,0 2.86233,-1.125 4.15408,-2.5 1.29175,-1.375 2.73637,-2.5 3.21027,-2.5 0.79976,0 5.82261,-2.36461 38.47865,-18.11462 6.70391,-3.23329 12.44768,-6.29738 12.76393,-6.80909 0.31625,-0.51171 2.25624,-1.44719 4.31108,-2.07885 2.05484,-0.63166 5.08607,-1.74803 6.73607,-2.48082 1.65,-0.7328 5.025,-2.14092 7.5,-3.12917 2.475,-0.98825 5.57319,-2.60471 6.88486,-3.59213 1.31167,-0.98743 2.93685,-1.79532 3.61151,-1.79532 0.67466,0 4.32647,-1.70122 8.11514,-3.78049 3.78867,-2.07927 8.46349,-4.37584 10.38849,-5.10348 1.925,-0.72764 8.11601,-3.55339 13.7578,-6.27944 5.64178,-2.72605 13.39012,-6.24812 17.21852,-7.82683 3.82841,-1.5787 8.96848,-4.25173 11.42238,-5.94007 2.45391,-1.68833 5.10739,-3.06969 5.89662,-3.06969 0.78923,0 2.50815,-0.84405 3.81982,-1.87566 1.31167,-1.03161 4.44129,-2.57374 6.9547,-3.42697 2.51341,-0.85322 10.61341,-4.44973 18,-7.99224 7.38659,-3.54251 14.55516,-6.78695 15.93016,-7.20986 1.375,-0.42291 3.77203,-1.83236 5.32673,-3.1321 1.55469,-1.29974 3.80469,-2.37071 5,-2.37992 1.1953,-0.009 4.64827,-1.35047 7.67327,-2.98056 3.025,-1.63009 7.525,-3.9007 10,-5.04581 2.475,-1.14511 6.75646,-3.17886 9.51435,-4.51945 2.7579,-1.34059 5.50065,-2.43743 6.09502,-2.43743 0.59436,0 1.85482,-0.85544 2.80101,-1.90097 0.9462,-1.04554 3.15344,-2.17187 4.90499,-2.50297 1.75155,-0.3311 5.88463,-1.94897 9.18463,-3.59527 3.3,-1.64629 6.72681,-2.99496 7.61514,-2.99703 0.88833,-0.002 2.75931,-0.90376 4.15773,-2.00376 1.39842,-1.1 2.88572,-2 3.3051,-2 0.70892,0 10.32499,-4.07871 18.42203,-7.81381 1.925,-0.88799 4.00151,-1.63743 4.61446,-1.66543 0.61296,-0.028 1.74151,-0.5713 2.50789,-1.20734 0.76638,-0.63604 3.18987,-1.81251 5.38553,-2.61438 7.02736,-2.56644 16.84525,-6.76422 21.94947,-9.384812 2.72654,-1.39985 7.22654,-3.21204 10,-4.02707 2.77346,-0.81504 5.71765,-2.05526 6.54265,-2.75605 0.825,-0.70079 3.975,-2.04917 7,-2.9964 3.025,-0.94724 6.625,-2.47953 8,-3.4051 1.375,-0.92556 5.65,-2.75068 9.5,-4.05582 3.85,-1.30513 7.675,-2.94153 8.5,-3.63643 0.825,-0.6949 4.15197,-2.19118 7.39327,-3.32508 3.2413,-1.13389 6.65173,-2.74802 7.57874,-3.58695 2.2704,-2.05468 4.24279,-1.92116 8.47083,0.57344 4.49218,2.65046 4.49782,4.86813 0.0224,8.79764 -2.64328,2.32079 -4.50491,3.10359 -7.38098,3.10359 -3.78889,0 -15.66716,3.9017 -19.59796,6.43743 -1.10754,0.71446 -5.37508,2.51153 -9.48342,3.99349 -4.10834,1.48196 -8.82718,3.51561 -10.4863,4.51922 -1.65912,1.00361 -5.54521,2.545862 -8.63576,3.427212 -3.09054,0.88135 -6.16574,2.26103 -6.83376,3.06595 -0.66802,0.80491 -3.76439,2.18547 -6.88082,3.0679 -3.11643,0.88243 -6.79124,2.37655 -8.16624,3.32026 -1.375,0.94371 -5.875,2.7773 -10,4.07465 -4.125,1.29735 -8.57319,3.19921 -9.88486,4.22635 -1.31167,1.02715 -3.16083,1.86754 -4.10923,1.86754 -0.94841,0 -4.25422,1.35 -7.34625,3 -3.09203,1.65 -6.24469,3 -7.00591,3 -0.76122,0 -2.45722,0.83456 -3.76889,1.85457 -1.31167,1.02002 -4.18486,2.42485 -6.38486,3.12186 -2.2,0.697 -5.575,2.06816 -7.5,3.04702 -1.925,0.97885 -5.075,2.35331 -7,3.05436 -5.15875,1.8787 -14.74686,6.2385 -30.5,13.8686 -7.7,3.72953 -15.125,7.28904 -16.5,7.91002 -1.375,0.62098 -3.175,1.56496 -4,2.09773 -0.825,0.53277 -4.875,2.39767 -9,4.14422 -11.37777,4.81741 -17.45253,7.5912 -29.56989,13.50188 -6.08844,2.96986 -11.39764,5.39974 -11.79822,5.39974 -0.40058,0 -7.04785,3.15 -14.77171,7 -7.72387,3.85 -14.61648,7 -15.31693,7 -0.70044,0 -2.34672,0.8381 -3.65839,1.86244 -1.31167,1.02434 -3.50986,2.20894 -4.88486,2.63245 -1.375,0.4235 -7.225,3.0009 -13,5.72756 -18.03053,8.51307 -20.84749,9.77755 -21.78206,9.77755 -0.49938,0 -1.72245,0.9 -2.71794,2 -0.99549,1.1 -2.52773,1.99084 -3.40499,1.97964 -0.87725,-0.0112 -5.64501,1.96458 -10.59501,4.39062 -17.1094,8.38547 -36.01304,17.4979 -39.5,19.04083 -1.925,0.85179 -4.175,1.98576 -5,2.51994 -0.825,0.53418 -6.45,3.28388 -12.5,6.11045 -12.30771,5.75018 -20.25734,9.63431 -22.5,10.99331 -0.825,0.49994 -12.525,6.31936 -26,12.93206 -13.475,6.61269 -25.175,12.45526 -26,12.98348 -0.825,0.52823 -3.525,1.86929 -6,2.98014 -2.475,1.11085 -5.175,2.4801 -6,3.04278 -0.825,0.56268 -11.4,5.87853 -23.5,11.813 -12.1,5.93447 -22.9,11.28916 -24,11.89932 -1.1,0.61015 -8.23218,4.16014 -15.84929,7.88885 -7.61711,3.72872 -14.0528,7.30983 -14.30153,7.95803 -0.24874,0.64819 0.42071,2.70606 1.48767,4.57304 1.06696,1.86698 2.72666,5.86951 3.68822,8.89451 0.96157,3.025 2.76186,7.3 4.00065,9.5 1.23879,2.2 2.81298,5.8 3.49819,8 0.68521,2.2 2.30804,5.83596 3.6063,8.07991 1.29826,2.24395 3.20707,6.54059 4.24181,9.5481 1.03473,3.00751 2.87561,7.41714 4.09084,9.79918 1.21522,2.38205 3.55857,8.4354 5.20742,13.4519 1.64886,5.0165 3.60241,9.79591 4.34123,10.62091 0.73881,0.825 3.67159,7.8 6.51728,15.5 2.84569,7.7 6.65966,17.6 8.4755,22 1.81584,4.4 4.01217,10.51659 4.88074,13.59242 0.86857,3.07582 2.51651,6.78398 3.66208,8.24034 1.14557,1.45636 1.82341,3.06773 1.5063,3.58081 -0.3171,0.51309 0.28888,2.42994 1.34663,4.25966 1.05775,1.82972 3.57151,8.24544 5.58613,14.25715 2.01462,6.0117 4.6917,12.9867 5.94907,15.5 1.25736,2.51329 3.53691,8.39462 5.06566,13.06962 1.52875,4.675 4.03318,11.00877 5.5654,14.07504 1.53222,3.06627 4.77847,11.61627 7.21389,19 4.59602,13.93423 7.84316,22.44056 10.38483,27.2045 0.81563,1.52875 3.0389,7.52874 4.94062,13.33331 1.90172,5.80457 4.30244,11.75378 5.33493,13.22046 1.03249,1.46668 3.5277,7.84169 5.54491,14.16669 2.0172,6.325 5.2682,15.325 7.22444,20 1.95623,4.675 5.13412,13.225 7.06197,19 1.92785,5.775 4.30147,11.52059 5.27471,12.76797 0.97323,1.24739 2.7517,5.52239 3.95215,9.5 1.20045,3.97762 3.00354,8.58203 4.00687,10.23203 1.00333,1.65 2.7991,5.90692 3.99061,9.45982 1.19152,3.5529 2.93467,7.6029 3.87368,9 0.93901,1.3971 2.53453,5.01518 3.54561,8.04018 1.01108,3.025 2.90621,7.38013 4.2114,9.67807 1.30519,2.29794 2.37308,5.0783 2.37308,6.17857 0,1.10028 0.76251,2.76301 1.69447,3.69497 1.39569,1.39569 6.30553,10.74636 6.30553,12.00873 0,0.19896 -0.98485,1.27928 -2.18856,2.4007 -2.57429,2.39832 -8.94746,2.76008 -11.07867,0.62887 -0.77555,-0.77555 -2.61923,-3.88148 -4.09706,-6.90206 -1.47784,-3.02059 -4.37347,-6.99855 -6.43474,-8.83992 -2.06128,-1.84136 -5.08724,-4.9909 -6.72437,-6.99897 C 457.56655,727.24079 407.57178,689.53786 373,669.09281 c -6.875,-4.06574 -18.35,-10.88859 -25.5,-15.1619 -13.26021,-7.92517 -28.29411,-16.52709 -43.5,-24.88932 -4.675,-2.57094 -11.2,-6.4838 -14.5,-8.69524 -3.3,-2.21144 -9.15,-5.75319 -13,-7.87054 -3.85,-2.11736 -11.725,-6.7505 -17.5,-10.29586 -5.775,-3.54536 -14.55,-8.9199 -19.5,-11.94343 -4.95,-3.02353 -11.35558,-7.01354 -14.23462,-8.86669 -2.87903,-1.85315 -5.83875,-3.36937 -6.57714,-3.36937 -1.62549,0 -3.33158,8.57133 -4.72855,23.75611 -0.54363,5.90914 -1.85575,16.81889 -2.91581,24.24389 -2.21457,15.51137 -3.69526,28.8368 -4.55584,41 -0.33077,4.675 -1.00151,10.75 -1.49053,13.5 -0.48902,2.75 -1.38812,10.175 -1.99799,16.5 -0.60987,6.325 -1.54024,15.325 -2.06749,20 -0.52725,4.675 -1.38893,14.125 -1.91483,21 -0.5259,6.875 -1.30741,16.1 -1.73669,20.5 -1.2791,13.11042 -0.96927,85.48881 0.3816,89.14711 1.06057,2.8721 0.92471,3.37456 -1.55472,5.75 -2.77934,2.66278 -4.23188,3.00466 -7.42194,1.74688 z M 470.0016,721.26669 c -1.18484,-3.17143 -2.73673,-6.44123 -3.44864,-7.26623 -0.71191,-0.825 -2.31456,-4.65 -3.56145,-8.5 -1.2469,-3.85 -3.13315,-8.7246 -4.19168,-10.83244 -1.05853,-2.10785 -3.46904,-8.26952 -5.35669,-13.6926 -1.88765,-5.42308 -5.19422,-13.86446 -7.34794,-18.75863 -2.15372,-4.89417 -4.90285,-12.21264 -6.10918,-16.26328 -1.20633,-4.05064 -3.27169,-9.80315 -4.58968,-12.78335 -1.31799,-2.98021 -2.39802,-6.37507 -2.40008,-7.54413 -0.002,-1.16906 -0.95969,-3.69373 -2.12809,-5.61037 -1.16839,-1.91664 -4.53582,-10.58552 -7.48317,-19.26418 -2.94735,-8.67866 -6.33577,-17.6855 -7.52982,-20.0152 -1.19406,-2.3297 -3.86105,-8.96082 -5.92667,-14.73582 -2.06561,-5.775 -4.72984,-12.975 -5.92051,-16 -1.19068,-3.025 -4.33572,-11.575 -6.98898,-19 -7.33105,-20.5155 -7.66777,-21.39116 -9.93295,-25.83128 -1.16074,-2.27524 -3.68388,-8.53149 -5.60697,-13.90276 -1.92309,-5.37128 -3.93043,-10.66596 -4.46075,-11.76596 -0.53031,-1.1 -1.60062,-3.8 -2.37845,-6 -4.45904,-12.61179 -8.06438,-21.49765 -10.23474,-25.22497 -1.35307,-2.32373 -4.24438,-9.61979 -6.42512,-16.21346 -2.18075,-6.59367 -4.8667,-13.46743 -5.96878,-15.27503 -1.10208,-1.8076 -2.00547,-4.12579 -2.00752,-5.15154 -0.002,-1.02575 -2.1952,-6.42575 -4.87365,-12 -2.67846,-5.57425 -5.19771,-11.26 -5.59834,-12.635 -0.93082,-3.19462 -6.55644,-16.797 -11.99372,-29 -2.32809,-5.225 -4.73036,-10.71216 -5.33837,-12.1937 -1.00968,-2.46027 -1.38365,-2.61392 -4.31553,-1.77307 -1.76553,0.50635 -4.82422,2.03103 -6.79709,3.38818 -1.97287,1.35716 -6.51204,3.77571 -10.08704,5.37456 -3.575,1.59886 -9.425,4.69811 -13,6.88723 -3.575,2.18912 -12.575,7.16561 -20,11.05887 -7.425,3.89325 -16.62821,8.80648 -20.45158,10.91829 l -6.95159,3.83964 -1.25604,8.5 c -0.69082,4.675 -1.27511,10.80888 -1.29842,13.63084 -0.0233,2.82196 -0.95221,11.14696 -2.06423,18.5 -1.11203,7.35304 -2.67496,19.21916 -3.47318,26.36916 -0.79822,7.15 -1.91972,16.6 -2.49223,21 -2.63437,20.2464 -4.09481,31.12972 -6.10569,45.5 -1.19292,8.525 -2.53785,19.325 -2.98873,24 -0.45087,4.675 -1.12921,11.54576 -1.50742,15.26835 -0.79577,7.83243 0.17009,9.56506 7.02694,12.60543 2.23419,0.99065 4.67977,2.54932 5.43461,3.4637 0.75485,0.91439 1.81933,1.66252 2.36552,1.66252 0.54619,0 3.97859,1.95124 7.62756,4.33609 8.67853,5.67201 20.458,12.73574 31.63448,18.97007 4.95,2.76115 14.175,8.25206 20.5,12.20202 6.325,3.94997 14.65,8.87877 18.5,10.95291 3.85,2.07414 8.125,4.55444 9.5,5.51179 1.375,0.95734 5.425,3.12582 9,4.81882 3.575,1.69301 9.425,5.00442 13,7.35868 3.575,2.35427 10.1,6.35407 14.5,8.88845 4.4,2.53437 9.575,5.51991 11.5,6.63452 6.83937,3.96014 17.58107,10.65668 23.12354,14.41555 3.09294,2.09763 7.90155,5.15703 10.68579,6.79868 2.78424,1.64164 7.53378,4.92602 10.55453,7.29861 3.02076,2.3726 10.73441,7.88298 17.14145,12.2453 6.40704,4.36232 14.33142,10.32482 17.60973,13.25 3.27831,2.92518 6.28105,5.32721 6.67276,5.33785 0.39171,0.0106 4.08592,3.16447 8.20936,7.00852 4.12344,3.84405 7.646,6.54265 7.82792,5.99689 0.18192,-0.54575 -0.63865,-3.58709 -1.82348,-6.75852 z M 210.14498,551.49101 c 0.74999,-8.12866 2.57584,-21.03799 3.88817,-27.49055 0.50338,-2.475 1.39077,-10.8 1.97198,-18.5 0.58122,-7.7 1.52583,-16.925 2.09914,-20.5 0.5733,-3.575 1.48972,-10.325 2.03648,-15 2.66084,-22.75107 4.65011,-38.84762 5.87021,-47.5 0.54291,-3.85 1.34634,-11.05791 1.78541,-16.01758 0.43907,-4.95967 1.08482,-9.48116 1.43499,-10.04775 0.35017,-0.56659 0.29614,-1.58116 -0.12007,-2.2546 -0.8568,-1.38632 -7.89805,1.30156 -12.18907,4.65298 -1.33222,1.04051 -3.54722,2.24359 -4.92222,2.67352 -1.375,0.42994 -5.425,2.60517 -9,4.83386 -3.575,2.22869 -9.2,5.45836 -12.5,7.17704 -3.3,1.71868 -7.90356,4.33034 -10.23013,5.8037 -2.32657,1.47336 -4.44624,2.67883 -4.71038,2.67883 -0.98347,0 -45.47995,25.93862 -56.55949,32.97059 -6.325,4.01435 -13.75,8.64134 -16.5,10.28218 -10.24584,6.11341 -20.5,15.08587 -20.5,17.93763 0,1.48077 6.65284,6.8096 8.50152,6.8096 0.2977,0 5.99897,3.17654 12.6695,7.05897 6.67053,3.88244 14.1984,8.18454 16.7286,9.56022 2.53021,1.37569 7.52538,4.24849 11.10038,6.38401 3.575,2.13552 10.325,5.95148 15,8.47991 4.675,2.52844 12.325,7.20343 17,10.38887 4.675,3.18545 14.8,9.30208 22.5,13.59252 7.7,4.29044 15.575,9.08262 17.5,10.64929 5.26329,4.28356 6.39049,3.55419 7.14498,-4.62324 z M 248.7837,371.99123 c 2.90603,-1.10453 6.95603,-3.06356 9,-4.35341 2.04396,-1.28985 4.8413,-2.68764 6.2163,-3.1062 1.375,-0.41857 3.47954,-1.65679 4.67676,-2.7516 2.11403,-1.93322 10.14617,-6.45719 19.32324,-10.88352 2.475,-1.19375 7.425,-4.05109 11,-6.34963 3.575,-2.29855 7.9824,-4.69533 9.79423,-5.32619 1.81182,-0.63086 4.59482,-2.07313 6.18445,-3.20504 l 2.89022,-2.05802 -2.81982,-6.72858 c -5.17853,-12.35688 -16.78215,-38.69146 -18.38657,-41.72858 -3.14386,-5.95122 -9.53308,-21.08625 -10.56482,-25.02633 -0.57988,-2.21448 -2.18908,-5.56441 -3.57601,-7.44428 C 281.13476,251.14998 280,249.03157 280,248.32228 c 0,-0.7093 -1.83433,-5.45937 -4.0763,-10.55572 -2.24196,-5.09636 -5.22948,-12.6411 -6.63891,-16.7661 -2.871,-8.40255 -4.1516,-10.53319 -5.51278,-9.17201 -0.85847,0.85847 -3.52926,16.68857 -5.84974,34.67201 -0.56774,4.4 -2.13252,14.8384 -3.47727,23.19644 -1.34475,8.35805 -2.445,17.01414 -2.445,19.23576 0,2.22162 -0.88106,9.78322 -1.95791,16.80356 -4.14383,27.01506 -8.56703,68.26454 -7.31994,68.26374 0.42782,-2.8e-4 3.15551,-0.90421 6.06155,-2.00873 z m 266.55675,353.4338 C 512.1282,720.71146 508.6,715.42515 507.5,713.67768 c -1.1,-1.74747 -3.47766,-5.20222 -5.28368,-7.67722 -1.80603,-2.475 -5.08758,-6.975 -7.29234,-10 -2.20476,-3.025 -7.32241,-10.675 -11.37256,-17 -4.05015,-6.325 -8.7561,-12.92379 -10.45767,-14.66397 C 471.27406,662.4755 470,660.12408 470,658.62663 c 0,-5.13308 12.92103,-6.16517 13.84011,-1.10551 0.19775,1.08864 1.15639,2.87934 2.13031,3.97934 0.97392,1.1 2.3915,3.17607 3.15017,4.61349 0.75868,1.43742 2.6982,4.58742 4.31006,7 1.61186,2.41258 6.56186,9.88356 11,16.60218 4.43814,6.71861 8.40685,12.23111 8.81935,12.25 1.06203,0.0486 0.93235,-7.35584 -0.18006,-10.28172 -0.51153,-1.34543 -1.91598,-10.48723 -3.12099,-20.3151 -3.75222,-30.60259 -1.964,-51.61638 5.22637,-61.41611 2.63215,-3.58735 9.87543,-7.44762 15.87704,-8.46159 7.99828,-1.3513 15.86799,4.54387 33.51415,25.10531 4.71844,5.49795 10.92491,14.35606 14.43349,20.6 4.8941,8.70965 8.69291,14.48249 12.18607,18.51853 4.03518,4.66228 4.46324,7.59278 1.61109,11.02942 -1.34938,1.62591 -9.24792,1.63009 -10.56813,0.006 -0.55872,-0.6875 -3.5932,-6.17845 -6.74328,-12.20211 -7.05042,-13.48198 -16.8037,-28.24334 -23.48756,-35.54789 -2.76796,-3.025 -6.7124,-7.6027 -8.76542,-10.17266 -4.21007,-5.27055 -6.85708,-6.82775 -11.60551,-6.82775 -7.3202,0 -11.77039,10.5 -12.19057,28.76309 -0.15518,6.7447 0.11044,15.0697 0.59026,18.5 0.47982,3.4303 1.12681,8.93691 1.43777,12.23691 0.8455,8.9729 4.26577,27.1142 6.53373,34.65524 1.10085,3.66038 2.00155,7.83733 2.00155,9.28212 0,1.44478 0.675,4.24238 1.5,6.21688 0.825,1.97451 1.5,4.3852 1.5,5.3571 0,3.00299 -3.29697,5.74973 -7.65955,6.38124 l -4.15955,0.60213 z m 110.30278,-65.56442 c -1.02122,-0.59347 -3.39854,-4.29228 -5.28293,-8.21959 -1.88439,-3.92731 -5.32385,-9.92852 -7.64323,-13.33602 -7.84098,-11.51949 -14.20628,-21.4179 -16.47605,-25.62121 -1.24243,-2.30083 -3.08521,-5.30833 -4.09506,-6.68333 -1.00986,-1.375 -2.64322,-4.075 -3.6297,-6 -0.98648,-1.925 -3.0812,-4.97816 -4.65493,-6.7848 -1.57373,-1.80663 -2.86326,-3.83163 -2.86561,-4.5 -0.002,-0.66836 -1.38029,-3.2402 -3.06209,-5.7152 -1.68179,-2.475 -3.4929,-5.4 -4.02469,-6.5 -0.53178,-1.1 -2.76417,-4.925 -4.96085,-8.5 -2.19669,-3.575 -4.62474,-7.86689 -5.39568,-9.53754 -0.77094,-1.67064 -2.96727,-5.36395 -4.88073,-8.20735 -3.96063,-5.88547 -9.05011,-20.10535 -8.09076,-22.60538 0.8446,-2.20099 4.79781,-3.11723 8.66469,-2.00822 2.6976,0.77366 3.26236,1.55404 4.25198,5.87532 1.44817,6.32364 4.21784,11.98528 13.37167,27.33381 1.8531,3.10715 4.49893,7.67436 5.87963,10.14936 1.38069,2.475 3.06395,5.175 3.74057,6 0.67662,0.825 2.57701,3.975 4.22308,7 5.3487,9.82934 7.38194,13.24886 11.36689,19.11697 2.15631,3.17531 3.92057,6.03622 3.92057,6.35758 0,0.32136 1.8,2.86146 4,5.64467 2.2,2.7832 4,5.62522 4,6.31559 0,0.69037 0.93438,2.10082 2.0764,3.13433 1.14202,1.03351 3.72952,4.71784 5.75,8.18739 7.12544,12.23573 8.70041,14.82005 11.4236,18.74458 3.36483,4.84922 3.38736,5.51912 0.29775,8.85287 -2.61123,2.81756 -4.89808,3.25331 -7.90452,1.50617 z M 667.5,620.10303 c -7.54984,-4.75627 -17.41996,-18.77891 -21.47962,-30.51644 -0.96753,-2.79737 -2.92131,-7.15902 -4.34173,-9.69255 -3.26338,-5.82069 -12.03657,-32.51848 -11.30899,-34.41451 0.78838,-2.0545 5.14211,-2.86573 9.95324,-1.85459 l 4.1771,0.87789 0.59964,6.99881 c 0.65221,7.61244 6.04749,24.55886 9.03659,28.38368 1.02507,1.31167 1.86377,2.7629 1.86377,3.22496 0,4.39549 14.17316,27.16643 16.5,26.50929 1.57439,-0.44463 3.2299,-16.04875 4.46861,-42.11911 1.09947,-23.1397 2.95019,-42.53322 5.0578,-53 0.55374,-2.75 1.28827,-8.08611 1.63229,-11.85802 0.5859,-6.42389 0.81474,-6.93759 3.61499,-8.11501 5.21987,-2.19479 12.72631,0.7901 12.72631,5.06055 0,2.37974 5.88776,15.60871 10.09885,22.69071 6.97598,11.73183 9.98137,15.25449 23.90115,28.01492 5.14157,4.71334 11.52115,8.0143 15.20947,7.86977 4.51964,-0.17709 11.79053,3.15469 11.79053,5.40286 0,0.83882 -1.15857,2.6837 -2.57461,4.09974 -2.22838,2.22838 -3.21794,2.51278 -7.35872,2.11491 -9.40156,-0.90337 -23.34012,-9.32932 -35.91596,-21.71142 -5.50858,-5.42372 -17.28129,-22.16664 -19.95203,-28.3754 -1.40028,-3.25528 -2.69213,-2.88139 -3.59901,1.04161 -0.91483,3.95738 -3.69943,48.1199 -4.11518,65.26478 -0.49588,20.44963 -1.24628,26.35076 -3.84031,30.20003 -3.95143,5.86353 -10.51349,7.44978 -16.14418,3.90254 z m -152,-89.00777 c -12.81997,-3.58662 -26.30622,-13.79629 -37.14065,-28.11707 -9.42942,-12.46366 -27.01486,-41.31082 -35.34364,-57.97773 -1.2368,-2.475 -2.83096,-5.175 -3.54257,-6 -0.71162,-0.825 -2.03016,-4.04981 -2.9301,-7.16624 -0.89994,-3.11643 -2.26136,-6.18502 -3.02537,-6.81909 -0.76401,-0.63408 -1.69658,-2.58427 -2.07238,-4.33377 -0.37579,-1.74949 -2.9015,-7.86604 -5.61267,-13.59231 -6.0511,-12.78052 -6.02201,-14.47879 0.25497,-14.88675 3.32735,-0.21625 4.96664,0.15858 5.96745,1.36447 0.75892,0.91445 3.75036,8.02141 6.64764,15.79324 2.89728,7.77183 5.72442,14.28282 6.28255,14.46886 0.55812,0.18604 1.04648,1.31326 1.08524,2.50492 0.0909,2.79354 8.82941,19.95088 19.35931,38.01027 3.15673,5.41398 6.18287,11.1154 6.72474,12.66982 0.54188,1.55443 1.5778,3.05362 2.30205,3.33154 0.72424,0.27792 3.93871,4.4765 7.14326,9.33017 8.12712,12.3095 13.69503,18.55182 22.37439,25.08442 8.67725,6.53103 13.24353,8.39797 21.43336,8.76314 6.54362,0.29176 10.67469,-0.79893 14.90824,-3.9361 11.49993,-8.52174 17.00513,-16.32357 23.04423,-32.6577 3.2426,-8.77034 4.28408,-13.05609 6.6655,-27.42889 1.30352,-7.86725 1.06899,-29.07638 -0.43679,-39.5 -1.53469,-10.6238 -3.85138,-17.65926 -9.76807,-29.66424 -5.46366,-11.08576 -13.61477,-17.71063 -15.29137,-12.42814 -1.66696,5.25213 -6.9911,2.4493 -6.97253,-3.67061 0.0214,-7.05959 0.64946,-7.60034 8.02698,-6.91142 5.57591,0.52069 7.42991,1.24013 12.6078,4.89243 5.37026,3.788 6.6341,5.37793 10.95531,13.78198 2.6866,5.225 5.44011,10.4 6.11892,11.5 0.67881,1.1 1.29658,3.125 1.37282,4.5 0.0762,1.375 1.10138,5.65 2.27808,9.5 4.14139,13.55005 4.50364,31.38791 1.1994,59.06165 -1.64484,13.77595 -13.43035,38.68594 -22.679,47.93459 -1.78031,1.7803 -6.58172,5.32163 -10.6698,7.86962 -7.37102,4.59416 -7.51957,4.63661 -17.85009,5.10048 -5.72947,0.25727 -11.76721,0.0901 -13.41721,-0.37154 z m 340.54248,-26.3448 C 850.28914,495.05274 828.28586,459.8108 823.37454,452.42728 821.51854,449.63702 820,447.04058 820,446.6574 c 0,-0.38317 -1.22951,-2.60024 -2.73224,-4.92681 -2.82324,-4.37103 -6.31496,-10.56649 -10.83797,-19.23013 -1.43568,-2.75 -4.34572,-8.15 -6.46675,-12 C 794.63332,400.82619 790,391.40513 790,390.24235 c 0,-0.53469 -0.92937,-2.15368 -2.06527,-3.59774 -2.67607,-3.40207 -10.11925,-24.10678 -10.29735,-28.64415 -0.13115,-3.34136 0.0299,-3.51391 3.55248,-3.80678 4.96595,-0.41288 9.63993,2.11437 10.31056,5.57497 1.77788,9.17421 3.84588,15.65329 6.01777,18.85375 1.36499,2.01143 2.48181,4.04926 2.48181,4.52851 0,0.98416 3.43352,9.05776 5.46463,12.84955 0.73653,1.375 2.96112,5.65 4.94353,9.5 6.53289,12.68736 11.71964,21.97573 13.1667,23.57874 0.78382,0.86831 1.42514,1.83816 1.42514,2.15523 0,0.31707 2.025,3.86095 4.5,7.87528 2.475,4.01433 4.5,7.67597 4.5,8.13697 0,0.46101 0.45208,1.3817 1.00461,2.04599 2.03882,2.45116 8.99539,13.48641 8.99539,14.26943 0,0.4452 0.82189,1.73846 1.82642,2.87391 1.00453,1.13545 5.16703,7.66849 9.25,14.51788 4.08297,6.84939 9.10332,14.22697 11.15633,16.39464 2.88425,3.04531 3.59687,4.4826 3.13497,6.32294 -0.74599,2.97226 -3.19578,4.32899 -7.81668,4.32899 -2.97729,0 -3.90524,-0.54748 -5.50856,-3.25 z m 27.25561,-47.39625 C 882.13229,456.88053 872,437.05046 872,435.24253 c 0,-0.49455 -1.30341,-2.88883 -2.89646,-5.32063 -2.44344,-3.7299 -15.68323,-28.71793 -27.2454,-51.42144 -1.68059,-3.3 -4.36187,-8.25 -5.9584,-11 -1.59654,-2.75 -3.32435,-5.96879 -3.83958,-7.15286 -0.51524,-1.18407 -1.3647,-2.41732 -1.8877,-2.74055 -0.52299,-0.32323 -1.25642,-1.80496 -1.62982,-3.29274 -0.37341,-1.48777 -2.00289,-4.21296 -3.62107,-6.05596 -3.07919,-3.50701 -2.96312,-5.31867 0.52631,-8.21464 3.55698,-2.95203 11.99855,1.19244 12.96939,6.36745 0.34201,1.8231 1.51304,4.12125 2.60229,5.107 1.08924,0.98575 1.98044,2.5365 1.98044,3.44612 0,0.90961 1.4625,4.13502 3.25,7.16757 1.7875,3.03255 5.725,10.53176 8.75,16.6649 5.30257,10.7509 7.96997,14.191 6.55486,8.45371 -2.52712,-10.24572 -4.78797,-28.26069 -4.67344,-37.23899 0.17384,-13.62684 6.09422,-24.62434 14.52733,-26.98546 4.79679,-1.34302 10.2048,-0.79387 14.60856,1.4834 3.80495,1.96762 12.54844,11.87666 16.17154,18.32728 1.12871,2.00958 3.34797,5.53711 4.93168,7.83895 1.58371,2.30184 2.87947,4.85409 2.87947,5.67166 0,0.81757 0.46795,1.64248 1.03989,1.83312 1.13609,0.3787 8.2599,15.88461 9.40459,20.47034 0.39124,1.56733 1.40136,3.61546 2.24471,4.5514 0.84335,0.93593 2.84083,5.66093 4.43885,10.5 1.59801,4.83906 3.79794,10.43457 4.88872,12.43445 3.96933,7.27754 2.06428,11.86385 -4.92797,11.86385 -4.12735,0 -5.04975,-1.66231 -11.08178,-19.97104 -2.80341,-8.50908 -5.68303,-16.15908 -6.39914,-17 -0.71611,-0.84093 -2.98201,-5.80396 -5.03533,-11.02896 -2.05332,-5.225 -4.82214,-10.64962 -6.15292,-12.05472 C 897.08883,356.54065 896,354.82172 896,354.12592 c 0,-0.69581 -1.35,-3.22727 -3,-5.62546 -1.65,-2.39819 -3,-4.64316 -3,-4.98881 0,-1.44933 -6.71072,-8.82687 -9.20034,-10.11453 -3.99842,-2.06805 -5.43539,-1.742 -8.16819,1.85334 -3.40876,4.48465 -5.31344,20.24259 -3.5959,29.75 0.64583,3.575 1.33587,7.85 1.53342,9.5 0.19755,1.65 0.87662,5.475 1.50905,8.5 0.63242,3.025 1.14804,6.48272 1.14582,7.68381 -0.005,2.81649 18.25963,57.19968 19.69176,58.63181 1.70051,1.70051 1.28925,3.57042 -1.37017,6.22983 -2.28463,2.28463 -5.39604,2.96684 -8.24736,1.8083 z M 698.63486,315.92788 c -4.014,-3.15741 -3.41647,-5.47309 1.87773,-7.27701 3.42818,-1.1681 5.23048,-1.28733 7.5,-0.49618 3.39714,1.18425 3.56641,1.82542 1.5244,5.77425 -2.37472,4.5922 -6.61658,5.36995 -10.90213,1.99894 z M 747,293.00046 c -2.07289,-2.07289 -2.43016,-3.71545 -1.39492,-6.41323 0.47472,-1.23711 1.49801,-1.44062 4.75,-0.94468 5.83611,0.89002 7.64492,2.0536 7.64492,4.91784 0,4.31742 -7.46642,5.97365 -11,2.44007 z M 630.19926,161.32127 C 628.19027,160.51612 624,153.32019 624,150.67532 c 0,-1.30069 -0.9,-3.17937 -2,-4.17486 -1.1,-0.99549 -2,-2.44431 -2,-3.21961 0,-2.24546 -4.19572,-11.38379 -5.08142,-11.06737 -1.10296,0.39403 -15.57784,14.4496 -20.11116,19.52858 -5.07587,5.68684 -8.05621,7.48504 -11.12793,6.71409 -5.74718,-1.44245 -7.4932,-7.75648 -2.79076,-10.09204 1.31381,-0.65252 5.81381,-4.52668 10,-8.60924 4.1862,-4.08255 10.1492,-9.53475 13.25112,-12.11599 3.10192,-2.58124 6.68521,-6.21876 7.96286,-8.08336 1.33018,-1.94128 3.46489,-3.61858 4.99479,-3.92456 1.84914,-0.36983 3.62339,-2.0809 5.76235,-5.55715 3.53265,-5.74129 5.93316,-6.74767 11.62473,-4.87354 3.15868,1.0401 4.5982,2.4004 7.19625,6.80019 1.78625,3.025 3.66875,6.4 4.18335,7.5 0.51459,1.1 2.10567,3.70748 3.53572,5.79441 1.43006,2.08692 2.6001,4.17792 2.6001,4.64666 0,0.46873 3.15,4.32025 7,8.55893 3.85,4.23868 7,8.13314 7,8.65437 0,1.5399 -6.96095,3.98955 -9.3234,3.28103 -2.48068,-0.74398 -9.65593,-7.30724 -9.71713,-8.88835 -0.0223,-0.57588 -2.05301,-3.52205 -4.51272,-6.54705 -2.45971,-3.025 -5.62052,-7.8539 -7.02402,-10.73088 -1.40351,-2.87698 -3.01958,-5.51996 -3.59127,-5.87328 -0.57169,-0.35333 -2.20172,0.51988 -3.62229,1.94045 l -2.58286,2.58286 3.78171,11.49671 c 2.07994,6.32319 4.3383,11.95864 5.01858,12.52322 0.68027,0.56458 2.09449,3.54961 3.1427,6.63341 1.87864,5.52686 1.87832,5.62704 -0.0229,7.01721 -1.93166,1.41246 -4.90805,1.70864 -7.34718,0.73111 z M 734.5,122.74575 c -7.76627,-1.89838 -9.42769,-3.00524 -15.35976,-10.23288 -6.91103,-8.4204 -9.60079,-13.328272 -10.49278,-19.145662 -0.77226,-5.03653 0.89261,-6.90874 5.35074,-6.01711 5.47642,1.09528 8.0018,3.48426 8.0018,7.56959 0,4.1331 3.7945,10.765702 8.89251,15.543672 l 3.16136,2.9629 3.44195,-1.85362 c 2.20166,-1.18567 3.83195,-3.03529 4.52422,-5.1329 1.81479,-5.49886 3.32901,-6.03043 7.92142,-2.78086 2.20871,1.56287 4.02105,3.29158 4.02742,3.84158 0.006,0.55 -1.05619,3.29314 -2.36124,6.09588 -3.55215,7.62861 -9.7559,10.94646 -17.10764,9.14941 z M 574.45863,114.1208 c -3.54522,-1.61038 -9.33468,-7.04759 -9.52669,-8.94707 -0.0374,-0.3703 -0.23889,-3.54288 -0.44768,-7.050192 l -0.37962,-6.37691 10.75437,-10.78283 c 9.89413,-9.92029 11.13423,-10.83978 15.50308,-11.49493 5.48842,-0.82304 9.60606,-0.2796 14.88791,1.96489 3.38426,1.43812 3.74884,1.95797 3.73813,5.33012 -0.0196,6.15919 -2.5907,13.95177 -7.11292,21.55772 -6.76298,11.374742 -9.53864,14.525092 -13.4428,15.257522 -1.89997,0.35644 -3.70109,1.04705 -4.00247,1.5347 -0.89384,1.44626 -5.64231,0.97337 -9.97131,-0.99302 z M 588.6431,99.239718 c 3.88321,-4.73501 7.78326,-13.12107 9.05173,-19.46341 0.9399,-4.69951 -3.52587,-3.69691 -10.03625,2.25321 -9.54102,8.71995 -13.29902,18.395812 -8.99282,23.154112 1.45353,1.60613 1.93133,1.66656 3.75,0.47433 1.14633,-0.75147 3.94864,-3.63968 6.22734,-6.418242 z m 76.14804,6.999842 c -2.09094,-0.45261 -5.08315,-5.36311 -6.54388,-10.739102 C 655.35992,84.874038 654,78.814208 654,76.574568 c 0,-3.39789 -1.60331,-4.06191 -4.79398,-1.98545 -3.33686,2.1716 -4.8351,3.9955 -6.63798,8.08085 -2.05929,4.66636 -4.78658,5.79515 -9.07966,3.75795 -6.66405,-3.1623 -3.78684,-10.36835 8.01162,-20.06532 6.1382,-5.04489 8.94439,-5.7708 14.71174,-3.80566 3.90642,1.33105 4.78963,2.19507 6.88478,6.73522 2.35221,5.09721 2.50346,5.21474 7.09093,5.51053 5.11936,0.33009 10.99228,-2.06084 14.05276,-5.72102 2.49952,-2.9893 4.34568,-2.58452 7.17016,1.57207 2.2926,3.37386 2.37238,3.86615 1.04316,6.43658 -1.93518,3.74222 -2.2564,3.88815 -13.24131,6.01561 -5.26427,1.01953 -9.98915,2.27146 -10.49974,2.78205 -0.57114,0.57113 -0.46696,2.32639 0.27075,4.56165 0.6595,1.99832 0.95982,4.25685 0.66737,5.01896 -0.29244,0.7621 0.13951,1.94271 0.95991,2.62358 0.87788,0.72858 1.36774,2.480252 1.19056,4.257202 -0.31095,3.11837 -3.19122,4.71678 -7.00993,3.89019 z m 109.97143,-7.804492 c -1.50559,-0.81692 -3.42467,-2.81429 -4.26463,-4.43859 -0.83996,-1.62431 -4.00564,-4.53872 -7.03484,-6.47648 -9.08802,-5.81353 -9.72844,-11.51954 -1.29291,-11.51954 2.94937,0 4.52837,0.65071 6.35087,2.61723 2.95629,3.18988 5.47894,2.56216 5.47894,-1.36334 0,-6.75687 6.7607,-9.58977 12.36514,-5.18131 3.15514,2.48183 3.30666,4.67449 0.63581,9.20123 -1.64142,2.782 -1.90796,4.57395 -1.4899,10.01657 0.44855,5.83958 0.27775,6.75228 -1.43521,7.66903 -2.67415,1.431162 -6.06008,1.240372 -9.31327,-0.5248 z m -57.13668,-34.68461 c -5.65638,-5.12015 -12.92338,-14.59289 -17.16651,-22.377005 -2.48617,-4.56094 -4.9566,-8.562261 -5.48984,-8.891825 -1.36956,-0.846436 -1.20954,-7.234505 0.19293,-7.701997 0.63936,-0.213121 3.22232,0.135524 5.73991,0.774765 4.3116,1.09476 4.75225,1.534072 7.58753,7.564637 3.86011,8.210346 10.56336,18.122165 16.24095,24.014835 3.91093,4.05909 4.32389,4.89578 3.33153,6.75 -1.56929,2.93225 -7.12828,2.86119 -10.4365,-0.13341 z" id="path779"></path>
  </g>
</svg>